<mxfile host="app.diagrams.net" modified="2023-10-19T02:41:52.572Z" agent="Mozilla/5.0 (Windows NT 10.0; Win64; x64) AppleWebKit/537.36 (KHTML, like Gecko) Chrome/118.0.0.0 Safari/537.36" version="22.0.4" etag="DqoPQa6xgJvguuPmcsre" type="github">
  <diagram name="페이지-1" id="UvAGxSlhymSa9UR2g-nF">
    <mxGraphModel>
      <root>
        <mxCell id="0" />
        <mxCell id="1" parent="0" />
      </root>
    </mxGraphModel>
  </diagram>
</mxfile>
